HIERARCHY
ROOT root
{
	OFFSET 0.000000 0.000000 0.000000
	CHANNELS 6 Xposition Yposition Zposition Zrotation Yrotation Xrotation
	JOINT lhip
	{
		OFFSET 0.058581 -0.082280 -0.017664
		CHANNELS 3 Zrotation Yrotation Xrotation
		JOINT lknee
		{
			OFFSET 0.043451 -0.386469 0.008037
			CHANNELS 3 Zrotation Yrotation Xrotation
			JOINT lankle
			{
				OFFSET -0.014790 -0.426874 -0.037428
				CHANNELS 3 Zrotation Yrotation Xrotation
				JOINT ltoe
				{
					OFFSET 0.041054 -0.060286 0.122042
					CHANNELS 3 Zrotation Yrotation Xrotation
					End Site
					{
						OFFSET 0.000000 0.000000 0.000000
					}
				}
			}
		}
	}
	JOINT rhip
	{
		OFFSET -0.060310 -0.090513 -0.013543
		CHANNELS 3 Zrotation Yrotation Xrotation
		JOINT rknee
		{
			OFFSET -0.043257 -0.383688 -0.004843
			CHANNELS 3 Zrotation Yrotation Xrotation
			JOINT rankle
			{
				OFFSET 0.019056 -0.420046 -0.034562
				CHANNELS 3 Zrotation Yrotation Xrotation
				JOINT rtoe
				{
					OFFSET -0.034840 -0.062106 0.130323
					CHANNELS 3 Zrotation Yrotation Xrotation
					End Site
					{
						OFFSET 0.000000 0.000000 0.000000
					}
				}
			}
		}
	}
	JOINT lowerback
	{
		OFFSET 0.004439 0.124404 -0.038385
		CHANNELS 3 Zrotation Yrotation Xrotation
		JOINT upperback
		{
			OFFSET 0.004488 0.137956 0.026820
			CHANNELS 3 Zrotation Yrotation Xrotation
			JOINT chest
			{
				OFFSET -0.002265 0.056032 0.002855
				CHANNELS 3 Zrotation Yrotation Xrotation
				JOINT lowerneck
				{
					OFFSET -0.013390 0.211636 -0.033468
					CHANNELS 3 Zrotation Yrotation Xrotation
					JOINT upperneck
					{
						OFFSET 0.010113 0.088937 0.050410
						CHANNELS 3 Zrotation Yrotation Xrotation
						End Site
						{
							OFFSET 0.000000 0.000000 0.000000
						}
					}
				}
				JOINT lclavicle
				{
					OFFSET 0.071702 0.114000 -0.018898
					CHANNELS 3 Zrotation Yrotation Xrotation
					JOINT lshoulder
					{
						OFFSET 0.122921 0.045205 -0.019046
						CHANNELS 3 Zrotation Yrotation Xrotation
						JOINT lelbow
						{
							OFFSET 0.255332 -0.015649 -0.022946
							CHANNELS 3 Zrotation Yrotation Xrotation
							JOINT lwrist
							{
								OFFSET 0.265709 0.012698 -0.007375
								CHANNELS 3 Zrotation Yrotation Xrotation
								End Site
								{
									OFFSET 0.000000 0.000000 0.000000
								}
							}
						}
					}
				}
				JOINT rclavicle
				{
					OFFSET -0.082954 0.112472 -0.023707
					CHANNELS 3 Zrotation Yrotation Xrotation
					JOINT rshoulder
					{
						OFFSET -0.113228 0.046853 -0.008472
						CHANNELS 3 Zrotation Yrotation Xrotation
						JOINT relbow
						{
							OFFSET -0.260127 -0.014369 -0.031269
							CHANNELS 3 Zrotation Yrotation Xrotation
							JOINT rwrist
							{
								OFFSET -0.269108 0.006794 -0.006027
								CHANNELS 3 Zrotation Yrotation Xrotation
								End Site
								{
									OFFSET 0.000000 0.000000 0.000000
								}
							}
						}
					}
				}
			}
		}
	}
}
MOTION
Frames: 11
Frame Time: 0.033333
0.034231 -1.338811 0.989383 -174.243999 3.220377 104.591962 4.743373 1.110903 -13.568553 -3.381737 0.722921 0.345833 1.597465 15.833734 -13.264675 0.000000 -0.000000 0.000000 -9.670809 -9.159443 -23.748722 -0.950953 -19.931661 23.016192 5.882055 -10.779918 -7.099929 0.000000 -0.000000 0.000000 2.205609 5.160640 -20.733802 2.783356 -1.929579 11.327428 -1.110816 1.352137 0.815724 -8.225168 23.487127 4.088948 4.679759 29.010541 8.418117 -27.702816 -5.056035 -1.521685 -53.167572 -8.140998 19.664406 7.433274 -29.782317 0.297683 -15.057779 -15.288664 -5.061985 28.998158 2.946635 3.379536 51.980772 8.172313 4.306456 -18.287260 23.913265 -27.961817 10.410954 9.167897 -10.840649 
0.034202 -1.337074 0.987636 -174.503392 2.944964 105.018695 4.427741 1.276322 -14.015817 -3.461804 1.284894 0.436079 1.450846 15.789043 -12.741492 0.000000 -0.000000 0.000000 -9.406052 -8.937707 -22.888068 -0.754939 -18.617082 18.009672 5.647634 -10.902815 -7.299318 0.000000 -0.000000 0.000000 2.323974 4.852487 -20.688103 2.390392 -1.737052 10.502344 -1.132599 1.457457 0.997421 -8.668781 23.176523 3.992875 5.168706 29.384669 8.437917 -27.717378 -4.721175 -1.051726 -52.726561 -8.202515 19.367550 7.540995 -30.009331 0.241844 -14.014041 -14.193169 -3.035868 28.337192 2.255729 3.589754 52.668108 8.473737 4.097002 -17.667492 24.639281 -26.955496 11.468163 8.904855 -10.648234 
0.035647 -1.335323 0.985215 -174.828465 2.432089 105.534553 4.098299 1.025479 -14.501633 -3.551815 2.296410 0.419445 1.285600 15.572060 -12.087960 0.000000 -0.000000 0.000000 -9.314817 -8.851866 -22.498388 -0.641475 -18.501818 14.232142 5.685625 -10.508479 -5.574607 0.000000 -0.000000 0.000000 2.134582 4.709887 -20.965465 1.975260 -1.616213 10.178482 -1.219102 1.470657 1.037730 -8.707578 23.242419 3.960540 5.171611 29.508797 8.427188 -27.672269 -4.428270 -0.978153 -52.569845 -8.086978 19.101524 7.919848 -30.050338 0.358854 -13.436332 -12.109617 0.985575 28.122733 1.963399 3.786298 52.682766 8.859794 3.799187 -16.318724 25.160613 -26.691305 14.693681 9.142324 -9.892566 
0.040166 -1.332140 0.981215 -175.235196 1.346956 105.896974 3.252069 0.836665 -14.582604 -3.576651 2.926534 -0.117219 1.337601 15.819013 -10.906153 0.000000 -0.000000 0.000000 -9.171532 -8.864834 -21.963902 -1.585480 -18.652188 11.304984 5.185690 -11.267761 -2.184394 0.000000 -0.000000 0.000000 1.694653 4.386954 -20.957498 1.383888 -1.416518 9.376056 -1.490272 1.796229 1.279686 -8.697873 23.253553 4.202628 5.030091 29.657673 8.055784 -27.828396 -4.121537 -1.124087 -52.080375 -8.141537 19.020710 7.790487 -28.332756 0.526212 -11.253445 -9.838433 2.940909 27.841826 1.648176 3.717963 53.331080 8.561686 4.418980 -16.899309 24.696709 -25.730499 13.823419 7.796799 -9.073115 
0.041943 -1.331075 0.980375 -175.235480 1.055408 105.863360 3.009886 0.838230 -14.456813 -3.455367 2.952048 -0.202807 1.200502 15.749758 -10.804958 0.000000 -0.000000 0.000000 -9.242452 -9.142730 -21.436198 -1.739581 -18.936924 10.457872 5.259401 -11.259341 -1.588691 0.000000 -0.000000 0.000000 1.754057 4.330033 -21.026076 1.128587 -1.431931 9.478150 -1.617857 1.839614 1.360586 -8.728427 23.285546 4.099405 4.913513 29.599836 8.059734 -27.973159 -4.133642 -1.264604 -52.050599 -8.133332 18.634627 7.986503 -27.428329 -0.061518 -11.305873 -9.903511 3.828590 27.784077 1.738377 3.648098 53.330233 8.672584 4.171501 -16.550565 24.226174 -25.624538 14.054192 7.825059 -8.290252 
0.046245 -1.329979 0.979436 -175.473602 0.792270 106.016842 2.918041 0.968108 -14.488095 -3.364318 3.206810 -0.409802 0.913561 15.740757 -10.499416 0.000000 -0.000000 0.000000 -9.544507 -9.189016 -20.968512 -1.199812 -19.071228 9.298495 5.333833 -11.022823 -0.938261 0.000000 -0.000000 0.000000 2.225961 4.319150 -20.966728 0.695194 -1.142156 9.118122 -1.908294 2.016727 1.552303 -8.539689 23.256476 4.032768 4.763111 29.514486 8.327645 -28.350313 -3.987108 -1.472669 -52.317419 -8.026440 18.248605 8.642914 -25.531741 -1.056955 -11.330049 -9.737087 4.542222 27.527725 1.838256 3.667907 53.469140 8.584147 3.976325 -16.226077 23.371986 -25.362236 14.427027 7.792077 -7.754598 
0.051391 -1.328608 0.979118 -175.727169 0.702869 106.219328 3.028982 1.253929 -14.614592 -3.257336 3.463826 -0.429036 0.571241 15.608793 -10.339626 0.000000 -0.000000 0.000000 -9.629284 -9.080507 -20.910075 -0.756755 -19.183234 8.823474 5.260704 -10.756358 -0.614497 0.000000 -0.000000 0.000000 2.649492 4.327555 -20.979448 0.430393 -0.664079 8.817597 -2.043046 2.134724 1.547924 -8.019168 23.168971 4.093703 4.635271 29.295062 8.853084 -28.499685 -3.494598 -1.731201 -53.428583 -7.701749 18.028549 9.662419 -23.489562 -2.099741 -11.773413 -9.689766 4.990441 27.223141 1.556799 3.532383 53.568668 8.424110 3.917513 -15.848179 22.405781 -25.018951 14.983689 7.805030 -7.139295 
0.057452 -1.327234 0.978665 -175.752490 0.535622 106.423662 3.265814 1.265184 -14.804081 -3.267543 3.332067 -0.343415 0.309195 15.771204 -10.201817 0.000000 -0.000000 0.000000 -9.664603 -8.912459 -20.958105 -0.451774 -19.579506 8.690912 5.317977 -10.665967 -1.069656 0.000000 -0.000000 0.000000 2.651178 4.182920 -20.857055 0.270647 -0.189834 8.154412 -1.887565 2.133829 1.847601 -7.559306 22.895846 3.930748 4.651519 29.307523 9.230493 -28.656376 -2.774563 -1.934998 -54.772537 -7.096401 17.604480 10.713656 -22.311955 -3.355793 -11.674785 -9.171769 5.532668 27.048204 1.164744 3.383375 53.551001 8.315784 3.570036 -15.616609 21.621194 -24.764294 15.234224 7.484288 -6.306645 
0.063764 -1.326169 0.978056 -175.822068 0.376445 106.836717 3.448161 1.125383 -15.320708 -3.074694 3.464573 -0.121386 -0.010255 16.009502 -10.119218 0.000000 -0.000000 0.000000 -9.603525 -8.518942 -21.427991 -0.452287 -20.109266 8.815520 5.097905 -10.568483 -1.326061 0.000000 -0.000000 0.000000 2.672475 4.031037 -20.953588 0.073565 0.318403 7.593643 -1.788127 2.213596 2.179128 -7.006583 22.827799 3.740104 4.438218 29.041368 9.197655 -29.007214 -1.967204 -2.330998 -55.802215 -6.220653 17.320870 11.553066 -21.633123 -4.899111 -11.839732 -9.776820 4.988735 26.974638 0.822234 3.088400 53.612335 7.916213 3.504150 -15.466895 20.943227 -24.644800 15.236545 7.430707 -6.194550 
0.069871 -1.323816 0.977868 -175.574810 0.283831 106.822463 3.664102 1.156367 -15.052830 -2.900578 3.319353 -0.360213 -0.023545 16.040700 -9.829739 0.000000 -0.000000 0.000000 -9.419369 -8.513414 -20.773330 -0.034698 -20.287021 7.991727 4.715919 -10.673758 -1.315858 0.000000 -0.000000 0.000000 2.715429 3.953797 -21.212219 0.057409 0.298907 8.243745 -1.786425 2.207954 1.876297 -6.849746 22.447941 3.629009 4.264714 29.066586 9.038451 -29.748281 -1.185203 -2.206677 -56.306943 -5.304185 16.756415 12.315326 -22.027187 -6.598710 -12.331252 -9.044143 5.090563 26.894184 0.585223 3.219214 53.639776 7.885426 3.464899 -15.801451 20.128921 -24.711679 15.715316 7.061537 -5.958916 
0.075883 -1.321959 0.978047 -175.221530 0.340467 106.637864 4.018321 1.305237 -14.661201 -2.678734 3.016177 -0.685770 -0.245559 16.022663 -9.789530 0.000000 -0.000000 0.000000 -9.085127 -8.439629 -19.903866 0.399045 -20.492300 7.150817 4.369584 -10.817837 -1.334338 0.000000 -0.000000 0.000000 3.051953 3.846355 -20.984698 -0.010605 0.361926 8.375529 -1.901541 2.195996 1.732454 -6.238564 22.267359 3.795761 3.851496 28.646531 9.122216 -30.188194 -0.358015 -2.151714 -56.913146 -4.372363 16.520966 12.913877 -22.124314 -7.349514 -13.072084 -9.824552 4.904234 26.840019 0.377881 3.150285 53.915834 7.656346 3.503842 -16.432756 19.216776 -24.875926 16.016383 6.941296 -5.944842 
